<svg width="28" height="28" viewBox="0 0 28 28" fill="none" xmlns="http://www.w3.org/2000/svg">
<rect x="20.2891" y="4.16125" width="5.17493" height="8.08749" rx="2" transform="rotate(45 20.2891 4.16125)" fill="#F9E3E7"/>
<rect x="9.69824" y="16.7133" width="2.85857" height="7.75247" rx="1.42929" transform="rotate(45 9.69824 16.7133)" fill="#F9E3E7"/>
<rect x="23.6289" y="22.609" width="2.85857" height="8.14645" rx="1.42929" transform="rotate(135 23.6289 22.609)" fill="#F9E3E7"/>
<path fill-rule="evenodd" clip-rule="evenodd" d="M3.21967 9.54831C2.92678 9.25542 2.92678 8.78055 3.21967 8.48765C3.51256 8.19476 3.98744 8.19476 4.28033 8.48765L7.23932 11.4466C7.95129 12.1586 9.01886 12.2983 9.87032 11.8656L4.8935 6.88873C4.6006 6.59584 4.6006 6.12096 4.8935 5.82807C5.18639 5.53518 5.66126 5.53518 5.95416 5.82807L10.9081 10.782C11.288 9.94605 11.1342 8.92687 10.4466 8.23932L7.48765 5.28033C7.19476 4.98744 7.19476 4.51256 7.48765 4.21967C7.78055 3.92678 8.25542 3.92678 8.54832 4.21967L11.5073 7.17866C12.7856 8.45695 12.9534 10.4252 12.0107 11.8847L13.7218 13.5958L15.4256 11.8921C14.4378 10.4268 14.5921 8.42086 15.8884 7.1245L17.5974 5.41554C19.0689 3.94408 21.4546 3.94408 22.926 5.41554C24.3975 6.88701 24.3975 9.27272 22.926 10.7442L21.2171 12.4531C19.9337 13.7365 17.9549 13.9006 16.4937 12.9453L14.7825 14.6564L17.0035 16.8775L17.2362 17.1101C17.9553 16.826 18.8057 16.9748 19.3873 17.5563L22.9183 21.0873C23.6997 21.8688 23.6997 23.1357 22.9183 23.9172C22.1368 24.6986 20.8699 24.6986 20.0884 23.9172L16.5574 20.3862C15.9513 19.7801 15.8153 18.8819 16.1495 18.1447L15.9429 17.9381L13.7218 15.7171L11.3914 18.0473C11.6548 18.7582 11.5009 19.5887 10.9298 20.1598L7.39697 23.6926C6.61516 24.4744 5.3476 24.4744 4.5658 23.6926C3.78399 22.9108 3.78399 21.6433 4.5658 20.8615L8.09858 17.3287C8.71545 16.7118 9.63473 16.5817 10.3792 16.9382L12.6612 14.6564L10.9633 12.9585C9.49659 13.9591 7.48006 13.8087 6.17866 12.5073L3.21967 9.54831ZM20.1564 11.3925L21.8654 9.68353C22.7511 8.79785 22.7511 7.36188 21.8654 6.4762C20.9797 5.59053 19.5437 5.59053 18.6581 6.47621L16.9491 8.18516C16.179 8.95524 16.0785 10.1413 16.6476 11.02L17.3215 11.694C18.2002 12.2631 19.3863 12.1626 20.1564 11.3925Z" fill="#E54F6D"/>
</svg>
